<svg xmlns="http://www.w3.org/2000/svg" viewBox="0 0 32 32" fill="none">
  <rect width="32" height="32" rx="8" fill="url(#bg-grad)"/>
  <path d="M16 6C16 6 11 11 11 18C11 21.5 13 24.5 16 26C19 24.5 21 21.5 21 18C21 11 16 6 16 6Z" fill="white" opacity="0.95"/>
  <circle cx="16" cy="15" r="2.5" fill="#F97316"/>
  <path d="M11 18L8.5 22L11 20.5V18Z" fill="white" opacity="0.7"/>
  <path d="M21 18L23.5 22L21 20.5V18Z" fill="white" opacity="0.7"/>
  <path d="M14.5 24C14.5 24 16 27 16 27C16 27 17.5 24 17.5 24" fill="#EF4444" opacity="0.8"/>
  <defs>
    <linearGradient id="bg-grad" x1="0" y1="0" x2="32" y2="32" gradientUnits="userSpaceOnUse">
      <stop stop-color="#F97316"/>
      <stop offset="1" stop-color="#F59E0B"/>
    </linearGradient>
  </defs>
</svg>
