<svg xmlns="http://www.w3.org/2000/svg" viewBox="0 0 32 32" fill="none">
  <!-- Rocket body -->
  <path d="M16 3C16 3 10 9 10 18C10 22 12.5 26 16 28C19.5 26 22 22 22 18C22 9 16 3 16 3Z" fill="url(#rocket-grad)"/>
  <!-- Window -->
  <circle cx="16" cy="15" r="3" fill="white" opacity="0.9"/>
  <!-- Left fin -->
  <path d="M10 18L7 23L10 21V18Z" fill="#F97316"/>
  <!-- Right fin -->
  <path d="M22 18L25 23L22 21V18Z" fill="#F97316"/>
  <!-- Flame -->
  <path d="M14 26C14 26 16 30 16 30C16 30 18 26 18 26" fill="url(#flame-grad)"/>
  <defs>
    <linearGradient id="rocket-grad" x1="10" y1="3" x2="22" y2="28" gradientUnits="userSpaceOnUse">
      <stop stop-color="#F97316"/>
      <stop offset="1" stop-color="#F59E0B"/>
    </linearGradient>
    <linearGradient id="flame-grad" x1="14" y1="26" x2="18" y2="30" gradientUnits="userSpaceOnUse">
      <stop stop-color="#EF4444"/>
      <stop offset="1" stop-color="#F59E0B"/>
    </linearGradient>
  </defs>
</svg>
